<?xml version="1.0" encoding="UTF-8"?>
<svg xmlns="http://www.w3.org/2000/svg" xmlns:l="http://www.w3.org/1999/xlink" version="1.1" width="9.652mm" height="128.27mm" viewBox="0 0 9.652 128.27" color-profile="auto" color-interpolation="linearRGB" color-interpolation-filters="linearRGB"><?xpacket begin="﻿" id="W5M0MpCehiHzreSzNTczkc9d"?><x:xmpmeta xmlns:x="adobe:ns:meta/"><r:RDF xmlns:r="http://www.w3.org/1999/02/22-rdf-syntax-ns#" xmlns:d="http://purl.org/dc/elements/1.1/" xmlns:x="http://ns.adobe.com/xap/1.0/"><r:Description r:about=""><d:title><r:Alt><r:li xml:lang="x-default">Eurorack template for 2 HP</r:li></r:Alt></d:title></r:Description></r:RDF></x:xmpmeta><?xpacket end="w"?><g fill="none" stroke-miterlimit="9.98123" transform="matrix(1 0 0 -1 -0 128.27)"><defs><path id="i1" d="M0 0L9.652 0L9.652 128.27L0 128.27Z"/></defs><use l:href="#i1" fill="#000000"/><defs><path id="i2" d="M0 0.635L9.652 0.635"/></defs><use l:href="#i2" stroke-width="0.254" stroke="#333333"/><defs><path id="i3" d="M0 127.635L9.652 127.635"/></defs><use l:href="#i3" stroke-width="0.254" stroke="#333333"/><defs><path id="i4" d="M0 3.175L9.652 3.175"/></defs><use l:href="#i4" stroke-width="0.254" stroke="#333333"/><defs><path id="i5" d="M0 125.095L9.652 125.095"/></defs><use l:href="#i5" stroke-width="0.254" stroke="#333333"/><defs><path id="i6" d="M0 5.715L9.652 5.715"/></defs><use l:href="#i6" stroke-width="0.254" stroke="#333333"/><defs><path id="i7" d="M0 122.555L9.652 122.555"/></defs><use l:href="#i7" stroke-width="0.254" stroke="#333333"/><defs><path id="i8" d="M0 8.255L9.652 8.255"/></defs><use l:href="#i8" stroke-width="0.254" stroke="#333333"/><defs><path id="i9" d="M0 120.015L9.652 120.015"/></defs><use l:href="#i9" stroke-width="0.254" stroke="#333333"/><defs><path id="i10" d="M0 10.795L9.652 10.795"/></defs><use l:href="#i10" stroke-width="0.254" stroke="#333333"/><defs><path id="i11" d="M0 117.475L9.652 117.475"/></defs><use l:href="#i11" stroke-width="0.254" stroke="#333333"/><defs><path id="i12" d="M0 13.335L9.652 13.335"/></defs><use l:href="#i12" stroke-width="0.254" stroke="#333333"/><defs><path id="i13" d="M0 114.935L9.652 114.935"/></defs><use l:href="#i13" stroke-width="0.254" stroke="#333333"/><defs><path id="i14" d="M0 15.875L9.652 15.875"/></defs><use l:href="#i14" stroke-width="0.254" stroke="#333333"/><defs><path id="i15" d="M0 112.395L9.652 112.395"/></defs><use l:href="#i15" stroke-width="0.254" stroke="#333333"/><defs><path id="i16" d="M0 18.415L9.652 18.415"/></defs><use l:href="#i16" stroke-width="0.254" stroke="#333333"/><defs><path id="i17" d="M0 109.855L9.652 109.855"/></defs><use l:href="#i17" stroke-width="0.254" stroke="#333333"/><defs><path id="i18" d="M0 20.955L9.652 20.955"/></defs><use l:href="#i18" stroke-width="0.254" stroke="#333333"/><defs><path id="i19" d="M0 107.315L9.652 107.315"/></defs><use l:href="#i19" stroke-width="0.254" stroke="#333333"/><defs><path id="i20" d="M0 23.495L9.652 23.495"/></defs><use l:href="#i20" stroke-width="0.254" stroke="#333333"/><defs><path id="i21" d="M0 104.775L9.652 104.775"/></defs><use l:href="#i21" stroke-width="0.254" stroke="#333333"/><defs><path id="i22" d="M0 26.035L9.652 26.035"/></defs><use l:href="#i22" stroke-width="0.254" stroke="#333333"/><defs><path id="i23" d="M0 102.235L9.652 102.235"/></defs><use l:href="#i23" stroke-width="0.254" stroke="#333333"/><defs><path id="i24" d="M0 28.575L9.652 28.575"/></defs><use l:href="#i24" stroke-width="0.254" stroke="#333333"/><defs><path id="i25" d="M0 99.695L9.652 99.695"/></defs><use l:href="#i25" stroke-width="0.254" stroke="#333333"/><defs><path id="i26" d="M0 31.115L9.652 31.115"/></defs><use l:href="#i26" stroke-width="0.254" stroke="#333333"/><defs><path id="i27" d="M0 97.155L9.652 97.155"/></defs><use l:href="#i27" stroke-width="0.254" stroke="#333333"/><defs><path id="i28" d="M0 33.655L9.652 33.655"/></defs><use l:href="#i28" stroke-width="0.254" stroke="#333333"/><defs><path id="i29" d="M0 94.615L9.652 94.615"/></defs><use l:href="#i29" stroke-width="0.254" stroke="#333333"/><defs><path id="i30" d="M0 36.195L9.652 36.195"/></defs><use l:href="#i30" stroke-width="0.254" stroke="#333333"/><defs><path id="i31" d="M0 92.075L9.652 92.075"/></defs><use l:href="#i31" stroke-width="0.254" stroke="#333333"/><defs><path id="i32" d="M0 38.735L9.652 38.735"/></defs><use l:href="#i32" stroke-width="0.254" stroke="#333333"/><defs><path id="i33" d="M0 89.535L9.652 89.535"/></defs><use l:href="#i33" stroke-width="0.254" stroke="#333333"/><defs><path id="i34" d="M0 41.275L9.652 41.275"/></defs><use l:href="#i34" stroke-width="0.254" stroke="#333333"/><defs><path id="i35" d="M0 86.995L9.652 86.995"/></defs><use l:href="#i35" stroke-width="0.254" stroke="#333333"/><defs><path id="i36" d="M0 43.815L9.652 43.815"/></defs><use l:href="#i36" stroke-width="0.254" stroke="#333333"/><defs><path id="i37" d="M0 84.455L9.652 84.455"/></defs><use l:href="#i37" stroke-width="0.254" stroke="#333333"/><defs><path id="i38" d="M0 46.355L9.652 46.355"/></defs><use l:href="#i38" stroke-width="0.254" stroke="#333333"/><defs><path id="i39" d="M0 81.915L9.652 81.915"/></defs><use l:href="#i39" stroke-width="0.254" stroke="#333333"/><defs><path id="i40" d="M0 48.895L9.652 48.895"/></defs><use l:href="#i40" stroke-width="0.254" stroke="#333333"/><defs><path id="i41" d="M0 79.375L9.652 79.375"/></defs><use l:href="#i41" stroke-width="0.254" stroke="#333333"/><defs><path id="i42" d="M0 51.435L9.652 51.435"/></defs><use l:href="#i42" stroke-width="0.254" stroke="#333333"/><defs><path id="i43" d="M0 76.835L9.652 76.835"/></defs><use l:href="#i43" stroke-width="0.254" stroke="#333333"/><defs><path id="i44" d="M0 53.975L9.652 53.975"/></defs><use l:href="#i44" stroke-width="0.254" stroke="#333333"/><defs><path id="i45" d="M0 74.295L9.652 74.295"/></defs><use l:href="#i45" stroke-width="0.254" stroke="#333333"/><defs><path id="i46" d="M0 56.515L9.652 56.515"/></defs><use l:href="#i46" stroke-width="0.254" stroke="#333333"/><defs><path id="i47" d="M0 71.755L9.652 71.755"/></defs><use l:href="#i47" stroke-width="0.254" stroke="#333333"/><defs><path id="i48" d="M0 59.055L9.652 59.055"/></defs><use l:href="#i48" stroke-width="0.254" stroke="#333333"/><defs><path id="i49" d="M0 69.215L9.652 69.215"/></defs><use l:href="#i49" stroke-width="0.254" stroke="#333333"/><defs><path id="i50" d="M0 61.595L9.652 61.595"/></defs><use l:href="#i50" stroke-width="0.254" stroke="#333333"/><defs><path id="i51" d="M0 66.675L9.652 66.675"/></defs><use l:href="#i51" stroke-width="0.254" stroke="#333333"/><defs><path id="i52" d="M0 64.135L9.652 64.135"/></defs><use l:href="#i52" stroke-width="0.254" stroke="#808080"/><defs><path id="i53" d="M2.286 0L2.286 128.27"/></defs><use l:href="#i53" stroke-width="0.254" stroke="#333333"/><defs><path id="i54" d="M7.366 0L7.366 128.27"/></defs><use l:href="#i54" stroke-width="0.254" stroke="#333333"/><defs><path id="i55" d="M4.826 0L4.826 128.27"/></defs><use l:href="#i55" stroke-width="0.254" stroke="#808080"/><use l:href="#i1" stroke-width="0.254" stroke="#FF0000"/><defs><path id="i56" d="M0 14.224L9.652 14.224L9.652 114.046L0 114.046Z"/></defs><use l:href="#i56" stroke-width="0.254" stroke="#00FF00"/><defs><path id="i57" d="M0 9L9.652 9"/></defs><use l:href="#i57" stroke-width="0.254" stroke="#808080"/><defs><path id="i58" d="M0 119.27L9.652 119.27"/></defs><use l:href="#i58" stroke-width="0.254" stroke="#808080"/><defs><path id="i59" d="M9.1 3A 1.6 1.6 0 0 1 5.9 3A 1.6 1.6 0 0 1 9.1 3Z"/></defs><use l:href="#i59" stroke-width="0.254" stroke="#FFFFFF"/><defs><path id="i60" d="M7.5 1.4L7.5 4.6"/></defs><use l:href="#i60" stroke-width="0.254" stroke="#FFFFFF"/><defs><path id="i61" d="M5.9 3L9.1 3"/></defs><use l:href="#i61" stroke-width="0.254" stroke="#FFFFFF"/><defs><path id="i62" d="M8.3 4.6A 1.6 1.6 0 0 0 8.3 1.4L6.7 1.4A 1.6 1.6 0 0 0 6.7 4.6Z"/></defs><use l:href="#i62" stroke-width="0.254" stroke="#00FF00"/><defs><path id="i63" d="M9.1 125.5A 1.6 1.6 0 0 1 5.9 125.5A 1.6 1.6 0 0 1 9.1 125.5Z"/></defs><use l:href="#i63" stroke-width="0.254" stroke="#FFFFFF"/><defs><path id="i64" d="M7.5 123.9L7.5 127.1"/></defs><use l:href="#i64" stroke-width="0.254" stroke="#FFFFFF"/><defs><path id="i65" d="M5.9 125.5L9.1 125.5"/></defs><use l:href="#i65" stroke-width="0.254" stroke="#FFFFFF"/><defs><path id="i66" d="M8.3 127.1A 1.6 1.6 0 0 0 8.3 123.9L6.7 123.9A 1.6 1.6 0 0 0 6.7 127.1Z"/></defs><use l:href="#i66" stroke-width="0.254" stroke="#00FF00"/><use l:href="#i1" fill="#000000" fill-opacity="0"/></g></svg>