<?xml version="1.0" encoding="UTF-8"?>
<svg xmlns="http://www.w3.org/2000/svg" xmlns:l="http://www.w3.org/1999/xlink" version="1.1" width="91.186mm" height="128.27mm" viewBox="0 0 91.186 128.27" color-profile="auto" color-interpolation="linearRGB" color-interpolation-filters="linearRGB"><?xpacket begin="﻿" id="W5M0MpCehiHzreSzNTczkc9d"?><x:xmpmeta xmlns:x="adobe:ns:meta/"><r:RDF xmlns:r="http://www.w3.org/1999/02/22-rdf-syntax-ns#" xmlns:d="http://purl.org/dc/elements/1.1/" xmlns:x="http://ns.adobe.com/xap/1.0/"><r:Description r:about=""><d:title><r:Alt><r:li xml:lang="x-default">Eurorack template for 18 HP</r:li></r:Alt></d:title></r:Description></r:RDF></x:xmpmeta><?xpacket end="w"?><g fill="none" stroke-miterlimit="9.98123" transform="matrix(1 0 0 -1 -0 128.27)"><defs><path id="i1" d="M0 0L91.186 0L91.186 128.27L0 128.27Z"/></defs><use l:href="#i1" fill="#000000"/><defs><path id="i2" d="M0 0.635L91.186 0.635"/></defs><use l:href="#i2" stroke-width="0.254" stroke="#333333"/><defs><path id="i3" d="M0 127.635L91.186 127.635"/></defs><use l:href="#i3" stroke-width="0.254" stroke="#333333"/><defs><path id="i4" d="M0 3.175L91.186 3.175"/></defs><use l:href="#i4" stroke-width="0.254" stroke="#333333"/><defs><path id="i5" d="M0 125.095L91.186 125.095"/></defs><use l:href="#i5" stroke-width="0.254" stroke="#333333"/><defs><path id="i6" d="M0 5.715L91.186 5.715"/></defs><use l:href="#i6" stroke-width="0.254" stroke="#333333"/><defs><path id="i7" d="M0 122.555L91.186 122.555"/></defs><use l:href="#i7" stroke-width="0.254" stroke="#333333"/><defs><path id="i8" d="M0 8.255L91.186 8.255"/></defs><use l:href="#i8" stroke-width="0.254" stroke="#333333"/><defs><path id="i9" d="M0 120.015L91.186 120.015"/></defs><use l:href="#i9" stroke-width="0.254" stroke="#333333"/><defs><path id="i10" d="M0 10.795L91.186 10.795"/></defs><use l:href="#i10" stroke-width="0.254" stroke="#333333"/><defs><path id="i11" d="M0 117.475L91.186 117.475"/></defs><use l:href="#i11" stroke-width="0.254" stroke="#333333"/><defs><path id="i12" d="M0 13.335L91.186 13.335"/></defs><use l:href="#i12" stroke-width="0.254" stroke="#333333"/><defs><path id="i13" d="M0 114.935L91.186 114.935"/></defs><use l:href="#i13" stroke-width="0.254" stroke="#333333"/><defs><path id="i14" d="M0 15.875L91.186 15.875"/></defs><use l:href="#i14" stroke-width="0.254" stroke="#333333"/><defs><path id="i15" d="M0 112.395L91.186 112.395"/></defs><use l:href="#i15" stroke-width="0.254" stroke="#333333"/><defs><path id="i16" d="M0 18.415L91.186 18.415"/></defs><use l:href="#i16" stroke-width="0.254" stroke="#333333"/><defs><path id="i17" d="M0 109.855L91.186 109.855"/></defs><use l:href="#i17" stroke-width="0.254" stroke="#333333"/><defs><path id="i18" d="M0 20.955L91.186 20.955"/></defs><use l:href="#i18" stroke-width="0.254" stroke="#333333"/><defs><path id="i19" d="M0 107.315L91.186 107.315"/></defs><use l:href="#i19" stroke-width="0.254" stroke="#333333"/><defs><path id="i20" d="M0 23.495L91.186 23.495"/></defs><use l:href="#i20" stroke-width="0.254" stroke="#333333"/><defs><path id="i21" d="M0 104.775L91.186 104.775"/></defs><use l:href="#i21" stroke-width="0.254" stroke="#333333"/><defs><path id="i22" d="M0 26.035L91.186 26.035"/></defs><use l:href="#i22" stroke-width="0.254" stroke="#333333"/><defs><path id="i23" d="M0 102.235L91.186 102.235"/></defs><use l:href="#i23" stroke-width="0.254" stroke="#333333"/><defs><path id="i24" d="M0 28.575L91.186 28.575"/></defs><use l:href="#i24" stroke-width="0.254" stroke="#333333"/><defs><path id="i25" d="M0 99.695L91.186 99.695"/></defs><use l:href="#i25" stroke-width="0.254" stroke="#333333"/><defs><path id="i26" d="M0 31.115L91.186 31.115"/></defs><use l:href="#i26" stroke-width="0.254" stroke="#333333"/><defs><path id="i27" d="M0 97.155L91.186 97.155"/></defs><use l:href="#i27" stroke-width="0.254" stroke="#333333"/><defs><path id="i28" d="M0 33.655L91.186 33.655"/></defs><use l:href="#i28" stroke-width="0.254" stroke="#333333"/><defs><path id="i29" d="M0 94.615L91.186 94.615"/></defs><use l:href="#i29" stroke-width="0.254" stroke="#333333"/><defs><path id="i30" d="M0 36.195L91.186 36.195"/></defs><use l:href="#i30" stroke-width="0.254" stroke="#333333"/><defs><path id="i31" d="M0 92.075L91.186 92.075"/></defs><use l:href="#i31" stroke-width="0.254" stroke="#333333"/><defs><path id="i32" d="M0 38.735L91.186 38.735"/></defs><use l:href="#i32" stroke-width="0.254" stroke="#333333"/><defs><path id="i33" d="M0 89.535L91.186 89.535"/></defs><use l:href="#i33" stroke-width="0.254" stroke="#333333"/><defs><path id="i34" d="M0 41.275L91.186 41.275"/></defs><use l:href="#i34" stroke-width="0.254" stroke="#333333"/><defs><path id="i35" d="M0 86.995L91.186 86.995"/></defs><use l:href="#i35" stroke-width="0.254" stroke="#333333"/><defs><path id="i36" d="M0 43.815L91.186 43.815"/></defs><use l:href="#i36" stroke-width="0.254" stroke="#333333"/><defs><path id="i37" d="M0 84.455L91.186 84.455"/></defs><use l:href="#i37" stroke-width="0.254" stroke="#333333"/><defs><path id="i38" d="M0 46.355L91.186 46.355"/></defs><use l:href="#i38" stroke-width="0.254" stroke="#333333"/><defs><path id="i39" d="M0 81.915L91.186 81.915"/></defs><use l:href="#i39" stroke-width="0.254" stroke="#333333"/><defs><path id="i40" d="M0 48.895L91.186 48.895"/></defs><use l:href="#i40" stroke-width="0.254" stroke="#333333"/><defs><path id="i41" d="M0 79.375L91.186 79.375"/></defs><use l:href="#i41" stroke-width="0.254" stroke="#333333"/><defs><path id="i42" d="M0 51.435L91.186 51.435"/></defs><use l:href="#i42" stroke-width="0.254" stroke="#333333"/><defs><path id="i43" d="M0 76.835L91.186 76.835"/></defs><use l:href="#i43" stroke-width="0.254" stroke="#333333"/><defs><path id="i44" d="M0 53.975L91.186 53.975"/></defs><use l:href="#i44" stroke-width="0.254" stroke="#333333"/><defs><path id="i45" d="M0 74.295L91.186 74.295"/></defs><use l:href="#i45" stroke-width="0.254" stroke="#333333"/><defs><path id="i46" d="M0 56.515L91.186 56.515"/></defs><use l:href="#i46" stroke-width="0.254" stroke="#333333"/><defs><path id="i47" d="M0 71.755L91.186 71.755"/></defs><use l:href="#i47" stroke-width="0.254" stroke="#333333"/><defs><path id="i48" d="M0 59.055L91.186 59.055"/></defs><use l:href="#i48" stroke-width="0.254" stroke="#333333"/><defs><path id="i49" d="M0 69.215L91.186 69.215"/></defs><use l:href="#i49" stroke-width="0.254" stroke="#333333"/><defs><path id="i50" d="M0 61.595L91.186 61.595"/></defs><use l:href="#i50" stroke-width="0.254" stroke="#333333"/><defs><path id="i51" d="M0 66.675L91.186 66.675"/></defs><use l:href="#i51" stroke-width="0.254" stroke="#333333"/><defs><path id="i52" d="M0 64.135L91.186 64.135"/></defs><use l:href="#i52" stroke-width="0.254" stroke="#808080"/><defs><path id="i53" d="M2.413 0L2.413 128.27"/></defs><use l:href="#i53" stroke-width="0.254" stroke="#333333"/><defs><path id="i54" d="M88.773 0L88.773 128.27"/></defs><use l:href="#i54" stroke-width="0.254" stroke="#333333"/><defs><path id="i55" d="M4.953 0L4.953 128.27"/></defs><use l:href="#i55" stroke-width="0.254" stroke="#333333"/><defs><path id="i56" d="M86.233 0L86.233 128.27"/></defs><use l:href="#i56" stroke-width="0.254" stroke="#333333"/><defs><path id="i57" d="M7.493 0L7.493 128.27"/></defs><use l:href="#i57" stroke-width="0.254" stroke="#333333"/><defs><path id="i58" d="M83.693 0L83.693 128.27"/></defs><use l:href="#i58" stroke-width="0.254" stroke="#333333"/><defs><path id="i59" d="M10.033 0L10.033 128.27"/></defs><use l:href="#i59" stroke-width="0.254" stroke="#333333"/><defs><path id="i60" d="M81.153 0L81.153 128.27"/></defs><use l:href="#i60" stroke-width="0.254" stroke="#333333"/><defs><path id="i61" d="M12.573 0L12.573 128.27"/></defs><use l:href="#i61" stroke-width="0.254" stroke="#333333"/><defs><path id="i62" d="M78.613 0L78.613 128.27"/></defs><use l:href="#i62" stroke-width="0.254" stroke="#333333"/><defs><path id="i63" d="M15.113 0L15.113 128.27"/></defs><use l:href="#i63" stroke-width="0.254" stroke="#333333"/><defs><path id="i64" d="M76.073 0L76.073 128.27"/></defs><use l:href="#i64" stroke-width="0.254" stroke="#333333"/><defs><path id="i65" d="M17.653 0L17.653 128.27"/></defs><use l:href="#i65" stroke-width="0.254" stroke="#333333"/><defs><path id="i66" d="M73.533 0L73.533 128.27"/></defs><use l:href="#i66" stroke-width="0.254" stroke="#333333"/><defs><path id="i67" d="M20.193 0L20.193 128.27"/></defs><use l:href="#i67" stroke-width="0.254" stroke="#333333"/><defs><path id="i68" d="M70.993 0L70.993 128.27"/></defs><use l:href="#i68" stroke-width="0.254" stroke="#333333"/><defs><path id="i69" d="M22.733 0L22.733 128.27"/></defs><use l:href="#i69" stroke-width="0.254" stroke="#333333"/><defs><path id="i70" d="M68.453 0L68.453 128.27"/></defs><use l:href="#i70" stroke-width="0.254" stroke="#333333"/><defs><path id="i71" d="M25.273 0L25.273 128.27"/></defs><use l:href="#i71" stroke-width="0.254" stroke="#333333"/><defs><path id="i72" d="M65.913 0L65.913 128.27"/></defs><use l:href="#i72" stroke-width="0.254" stroke="#333333"/><defs><path id="i73" d="M27.813 0L27.813 128.27"/></defs><use l:href="#i73" stroke-width="0.254" stroke="#333333"/><defs><path id="i74" d="M63.373 0L63.373 128.27"/></defs><use l:href="#i74" stroke-width="0.254" stroke="#333333"/><defs><path id="i75" d="M30.353 0L30.353 128.27"/></defs><use l:href="#i75" stroke-width="0.254" stroke="#333333"/><defs><path id="i76" d="M60.833 0L60.833 128.27"/></defs><use l:href="#i76" stroke-width="0.254" stroke="#333333"/><defs><path id="i77" d="M32.893 0L32.893 128.27"/></defs><use l:href="#i77" stroke-width="0.254" stroke="#333333"/><defs><path id="i78" d="M58.293 0L58.293 128.27"/></defs><use l:href="#i78" stroke-width="0.254" stroke="#333333"/><defs><path id="i79" d="M35.433 0L35.433 128.27"/></defs><use l:href="#i79" stroke-width="0.254" stroke="#333333"/><defs><path id="i80" d="M55.753 0L55.753 128.27"/></defs><use l:href="#i80" stroke-width="0.254" stroke="#333333"/><defs><path id="i81" d="M37.973 0L37.973 128.27"/></defs><use l:href="#i81" stroke-width="0.254" stroke="#333333"/><defs><path id="i82" d="M53.213 0L53.213 128.27"/></defs><use l:href="#i82" stroke-width="0.254" stroke="#333333"/><defs><path id="i83" d="M40.513 0L40.513 128.27"/></defs><use l:href="#i83" stroke-width="0.254" stroke="#333333"/><defs><path id="i84" d="M50.673 0L50.673 128.27"/></defs><use l:href="#i84" stroke-width="0.254" stroke="#333333"/><defs><path id="i85" d="M43.053 0L43.053 128.27"/></defs><use l:href="#i85" stroke-width="0.254" stroke="#333333"/><defs><path id="i86" d="M48.133 0L48.133 128.27"/></defs><use l:href="#i86" stroke-width="0.254" stroke="#333333"/><defs><path id="i87" d="M45.593 0L45.593 128.27"/></defs><use l:href="#i87" stroke-width="0.254" stroke="#808080"/><use l:href="#i1" stroke-width="0.254" stroke="#FF0000"/><defs><path id="i88" d="M0 14.224L91.186 14.224L91.186 114.046L0 114.046Z"/></defs><use l:href="#i88" stroke-width="0.254" stroke="#00FF00"/><defs><path id="i89" d="M0 9L91.186 9"/></defs><use l:href="#i89" stroke-width="0.254" stroke="#808080"/><defs><path id="i90" d="M0 119.27L91.186 119.27"/></defs><use l:href="#i90" stroke-width="0.254" stroke="#808080"/><defs><path id="i91" d="M9.1 3A 1.6 1.6 0 0 1 5.9 3A 1.6 1.6 0 0 1 9.1 3Z"/></defs><use l:href="#i91" stroke-width="0.254" stroke="#FFFFFF"/><defs><path id="i92" d="M7.5 1.4L7.5 4.6"/></defs><use l:href="#i92" stroke-width="0.254" stroke="#FFFFFF"/><defs><path id="i93" d="M5.9 3L9.1 3"/></defs><use l:href="#i93" stroke-width="0.254" stroke="#FFFFFF"/><defs><path id="i94" d="M8.3 4.6A 1.6 1.6 0 0 0 8.3 1.4L6.7 1.4A 1.6 1.6 0 0 0 6.7 4.6Z"/></defs><use l:href="#i94" stroke-width="0.254" stroke="#00FF00"/><defs><path id="i95" d="M9.1 125.5A 1.6 1.6 0 0 1 5.9 125.5A 1.6 1.6 0 0 1 9.1 125.5Z"/></defs><use l:href="#i95" stroke-width="0.254" stroke="#FFFFFF"/><defs><path id="i96" d="M7.5 123.9L7.5 127.1"/></defs><use l:href="#i96" stroke-width="0.254" stroke="#FFFFFF"/><defs><path id="i97" d="M5.9 125.5L9.1 125.5"/></defs><use l:href="#i97" stroke-width="0.254" stroke="#FFFFFF"/><defs><path id="i98" d="M8.3 127.1A 1.6 1.6 0 0 0 8.3 123.9L6.7 123.9A 1.6 1.6 0 0 0 6.7 127.1Z"/></defs><use l:href="#i98" stroke-width="0.254" stroke="#00FF00"/><defs><path id="i99" d="M85.3 3A 1.6 1.6 0 0 1 82.1 3A 1.6 1.6 0 0 1 85.3 3Z"/></defs><use l:href="#i99" stroke-width="0.254" stroke="#FFFFFF"/><defs><path id="i100" d="M83.7 1.4L83.7 4.6"/></defs><use l:href="#i100" stroke-width="0.254" stroke="#FFFFFF"/><defs><path id="i101" d="M82.1 3L85.3 3"/></defs><use l:href="#i101" stroke-width="0.254" stroke="#FFFFFF"/><defs><path id="i102" d="M84.5 4.6A 1.6 1.6 0 0 0 84.5 1.4L82.9 1.4A 1.6 1.6 0 0 0 82.9 4.6Z"/></defs><use l:href="#i102" stroke-width="0.254" stroke="#00FF00"/><defs><path id="i103" d="M85.3 125.5A 1.6 1.6 0 0 1 82.1 125.5A 1.6 1.6 0 0 1 85.3 125.5Z"/></defs><use l:href="#i103" stroke-width="0.254" stroke="#FFFFFF"/><defs><path id="i104" d="M83.7 123.9L83.7 127.1"/></defs><use l:href="#i104" stroke-width="0.254" stroke="#FFFFFF"/><defs><path id="i105" d="M82.1 125.5L85.3 125.5"/></defs><use l:href="#i105" stroke-width="0.254" stroke="#FFFFFF"/><defs><path id="i106" d="M84.5 127.1A 1.6 1.6 0 0 0 84.5 123.9L82.9 123.9A 1.6 1.6 0 0 0 82.9 127.1Z"/></defs><use l:href="#i106" stroke-width="0.254" stroke="#00FF00"/></g></svg>